<svg width="188" height="37" viewBox="0 0 188 37" fill="none" xmlns="http://www.w3.org/2000/svg">
<path d="M55.4555 13.3405H46.4434V8.02226H70.9964V13.3405H61.9765V36.2068H55.4555V13.3405Z" fill="white"/>
<path d="M91.6526 30.17H78.5717L76.0726 36.2068H69.3877L81.9454 8.02226H88.3882L100.993 36.2068H94.1516L91.6526 30.17ZM89.5987 25.2188L85.1317 14.4261L80.6646 25.2188H89.5987Z" fill="white"/>
<path d="M103.929 8.02226H110.45V30.8885H124.585V36.2068H103.929V8.02226Z" fill="white"/>
<path d="M133.503 34.7932C131.153 33.5358 129.318 31.7943 127.99 29.5764C126.662 27.3585 125.999 24.8751 125.999 22.1105C125.999 19.346 126.662 16.8547 127.99 14.6446C129.318 12.4267 131.153 10.693 133.503 9.42789C135.854 8.17056 138.486 7.53799 141.415 7.53799C144.343 7.53799 146.967 8.17056 149.302 9.42789C151.637 10.693 153.472 12.4267 154.816 14.6446C156.159 16.8625 156.83 19.346 156.83 22.1105C156.83 24.8751 156.159 27.3663 154.816 29.5764C153.472 31.7943 151.637 33.528 149.302 34.7932C146.967 36.0583 144.335 36.6831 141.415 36.6831C138.494 36.6831 135.854 36.0505 133.503 34.7932ZM145.921 29.9825C147.264 29.2172 148.318 28.1473 149.083 26.7806C149.849 25.414 150.231 23.8521 150.231 22.1105C150.231 20.369 149.849 18.8071 149.083 17.4404C148.318 16.0738 147.264 15.0039 145.921 14.2385C144.577 13.4732 143.078 13.0905 141.415 13.0905C139.751 13.0905 138.244 13.4732 136.908 14.2385C135.565 15.0039 134.511 16.0738 133.746 17.4404C132.98 18.8071 132.598 20.369 132.598 22.1105C132.598 23.8521 132.98 25.414 133.746 26.7806C134.511 28.1473 135.565 29.2172 136.908 29.9825C138.252 30.7478 139.751 31.1305 141.415 31.1305C143.078 31.1305 144.577 30.7478 145.921 29.9825Z" fill="white"/>
<path d="M187.592 8.02226V36.2068H182.235L168.186 19.0961V36.2068H161.743V8.02226H167.139L181.149 25.1329V8.02226H187.592Z" fill="white"/>
<path d="M26.935 23.907C24.7561 20.5957 24.5609 17.2533 24.7093 14.9963C26.7554 15.4883 30.6914 17.058 32.4797 18.167C34.7289 19.5571 34.7367 20.4239 35.2443 21.5407V21.4938V21.5173C35.3927 21.2595 36.4314 19.3775 35.6035 17.2142C35.1194 15.9413 34.2213 15.1759 33.6121 14.7777C33.331 14.2154 33.0889 13.8327 33.003 13.6999C31.5348 11.3649 29.3091 9.49062 26.7007 8.60033C24.1938 7.74129 21.5386 7.81939 18.86 7.88967C17.423 7.92872 15.9861 7.96777 14.5647 7.86624C13.9009 7.81158 13.2293 7.73348 12.5733 7.61634C12.2687 7.56167 11.9642 7.49919 11.6674 7.43672C9.54322 6.96034 7.45808 6.23405 5.63065 5.06263C1.24952 2.25121 0 0.306641 0 0.306641C0 0.306641 1.48955e-06 3.89901 1.81962 7.80377C2.92857 10.1779 5.06056 12.0287 7.45027 13.122C8.77789 13.7234 10.168 14.0592 11.5971 14.2388C13.4402 21.939 18.5163 28.2881 25.9432 30.9121C30.09 32.3725 33.9792 32.4115 37.103 31.9742C40.547 31.4822 43.046 30.4279 43.8972 30.0218C37.0639 31.5369 30.3009 29.0534 26.935 23.9226V23.907ZM31.1131 13.4969C32.4016 14.1451 32.7062 15.4805 32.7453 15.6679C32.3079 15.6757 31.1365 15.7304 30.1291 14.9104C29.0123 13.9967 28.903 13.3407 28.903 13.3407C28.903 13.3407 30.2775 13.0752 31.1053 13.4891L31.1131 13.4969Z" fill="url(#paint0_linear_1402_779)"/>
<defs>
<linearGradient id="paint0_linear_1402_779" x1="21.9486" y1="0.306641" x2="21.9486" y2="32.2179" gradientUnits="userSpaceOnUse">
<stop offset="0.59375" stop-color="#EB2159"/>
<stop offset="1" stop-color="#FA780F"/>
</linearGradient>
</defs>
</svg>
